<svg width="30" height="30" viewBox="0 0 30 30" fill="none" xmlns="http://www.w3.org/2000/svg">
<path fill-rule="evenodd" clip-rule="evenodd" d="M10.1282 17.3652C10.6524 16.8828 10.9939 16.2489 11.1549 15.464H16.3289C16.0917 17.7073 15.2328 19.5235 13.7527 20.914C12.2719 22.3044 10.4489 23 8.28502 23C6.70656 23 5.28576 22.6352 4.02192 21.9063C2.75808 21.1775 1.7718 20.1645 1.06308 18.8676C0.35436 17.5706 0 16.115 0 14.5C0 12.885 0.35436 11.4294 1.06308 10.1324C1.7718 8.83546 2.75808 7.82254 4.02192 7.09367C5.28576 6.36408 6.70656 6 8.28502 6C10.4145 6 12.2126 6.67079 13.6792 8.01308C15.1452 9.35467 16.0115 11.1135 16.2763 13.2888H11.1765C10.9602 12.5712 10.5904 11.9939 10.0662 11.5562C9.54279 11.1191 8.95601 10.9003 8.30657 10.9003C7.41259 10.9003 6.69174 11.231 6.14403 11.8926C5.59498 12.5542 5.32146 13.4233 5.32146 14.4993C5.32146 15.5689 5.59767 16.4345 6.14875 17.096C6.70117 17.7576 7.41933 18.0877 8.30657 18.0877C8.99778 18.0877 9.60544 17.8469 10.1289 17.3652H10.1282ZM28.493 12.9452C29.4974 13.9581 30 15.2685 30 16.8743C30 18.7103 29.422 20.1908 28.2653 21.3142C27.1079 22.4383 25.584 23 23.6909 23C21.8208 23 20.3002 22.4362 19.1287 21.3085C17.9565 20.1801 17.371 18.7188 17.371 16.9218C17.371 15.9408 17.5321 14.9533 17.8534 13.9603C18.1748 12.9672 18.6719 11.8806 19.345 10.7019L21.7231 6.544L26.7488 6.54329L23.9348 11.4492C24.2157 11.4336 24.4374 11.4258 24.6004 11.4258C26.1896 11.4258 27.4865 11.9323 28.4923 12.9452H28.493ZM25.0996 18.3817C25.4614 17.9942 25.6426 17.492 25.6426 16.8743C25.6426 16.2574 25.4614 15.7509 25.0996 15.355C24.7372 14.959 24.2676 14.7614 23.6916 14.7614C23.1149 14.7614 22.6447 14.9597 22.2836 15.355C21.9205 15.7509 21.7399 16.2574 21.7399 16.8743C21.7399 17.492 21.9205 17.9942 22.2829 18.3817C22.6447 18.7698 23.1149 18.9639 23.6909 18.9639C24.2676 18.9639 24.7372 18.7698 25.0989 18.3817H25.0996Z" fill="white"/>
</svg>
